<?xml version="1.0" standalone="no"?>
<!DOCTYPE svg PUBLIC "-//W3C//DTD SVG 20010904//EN"
 "http://www.w3.org/TR/2001/REC-SVG-20010904/DTD/svg10.dtd">
<svg version="1.0" xmlns="http://www.w3.org/2000/svg"
 width="672.000000pt" height="569.000000pt" viewBox="0 0 672.000000 569.000000"
 preserveAspectRatio="xMidYMid meet">

<g transform="translate(0.000000,569.000000) scale(0.100000,-0.100000)"
fill="#000000" stroke="none">
<path d="M3071 5339 c-639 -71 -1236 -395 -1648 -893 -298 -359 -482 -782
-554 -1271 -20 -132 -17 -499 5 -650 33 -228 82 -411 161 -607 352 -862 1152
-1459 2074 -1548 202 -20 513 -6 701 30 538 103 1037 384 1396 787 514 577
733 1334 604 2088 -118 689 -513 1289 -1104 1677 -282 185 -594 305 -953 369
-136 24 -535 35 -682 18z m549 -65 c279 -31 533 -106 787 -229 249 -121 430
-247 631 -439 387 -372 636 -858 717 -1396 35 -229 30 -575 -10 -785 -63 -323
-194 -653 -360 -900 -318 -475 -759 -812 -1288 -984 -246 -80 -477 -115 -752
-115 -416 0 -785 93 -1155 292 -208 111 -377 238 -561 422 -401 400 -642 907
-699 1473 -18 172 -8 499 19 652 69 391 221 743 454 1054 94 126 304 340 434
443 500 398 1151 585 1783 512z"/>
<path d="M3105 5244 c-100 -11 -281 -46 -395 -78 -647 -177 -1196 -627 -1501
-1231 -122 -242 -202 -502 -240 -785 -19 -140 -17 -479 5 -620 78 -519 295
-966 648 -1336 295 -308 699 -546 1112 -655 234 -61 337 -73 616 -73 279 0
382 12 616 73 413 109 817 347 1112 655 353 370 570 817 648 1336 22 141 24
480 5 620 -76 562 -318 1043 -717 1430 -348 337 -770 551 -1264 641 -92 17
-163 22 -360 24 -135 2 -263 1 -285 -1z m266 -1019 c55 -36 102 -72 105 -80 9
-23 -16 -46 -117 -110 -69 -44 -95 -56 -114 -51 l-25 6 0 138 c0 138 6 162 37
162 8 0 59 -29 114 -65z m-446 -47 c111 -71 126 -88 104 -114 -29 -36 -193
-135 -219 -132 l-25 3 -3 139 c-3 137 3 166 33 166 6 0 56 -28 110 -62z m899
-10 c128 -82 128 -88 -4 -173 -151 -98 -160 -94 -160 83 0 69 5 132 11 144 15
28 40 19 153 -54z m-164 -339 c262 -28 423 -78 484 -149 l26 -32 0 -333 0
-334 -31 -35 c-75 -86 -273 -137 -603 -157 -429 -26 -850 39 -963 147 l-43 41
0 336 0 335 26 32 c110 130 626 200 1104 149z m-1070 -1504 l0 -285 -35 0 -35
0 0 285 0 285 35 0 35 0 0 -285z m-260 252 c74 -26 104 -129 57 -198 -12 -18
-33 -36 -47 -39 -25 -6 -25 -6 7 -17 89 -32 100 -202 17 -258 -25 -17 -50 -20
-181 -23 l-153 -4 0 276 0 276 133 -1 c75 0 147 -5 167 -12z m649 -133 c17
-10 41 -38 52 -61 18 -37 20 -58 17 -147 -3 -113 -13 -136 -72 -180 -22 -17
-42 -21 -104 -21 -138 0 -182 52 -182 213 0 125 23 175 95 209 41 19 152 12
194 -13z m551 1 c0 -24 -3 -25 -57 -26 -47 0 -54 -2 -37 -11 32 -15 49 -55 48
-108 -3 -92 -54 -130 -173 -130 -78 0 -101 -6 -101 -25 0 -22 15 -26 128 -41
122 -16 152 -32 167 -88 11 -44 -3 -77 -47 -109 -54 -40 -262 -33 -310 10 -44
40 -27 112 34 137 l30 13 -24 6 c-26 7 -47 41 -40 69 2 9 15 22 30 29 l27 12
-32 34 c-29 31 -33 41 -33 91 0 65 13 96 51 125 38 28 80 35 217 36 l122 1 0
-25z m338 -2 c15 -10 37 -39 50 -64 21 -39 23 -55 20 -139 -5 -148 -47 -201
-162 -208 -88 -6 -146 20 -178 80 -32 60 -33 213 -2 273 31 61 90 88 177 82
47 -3 77 -11 95 -24z m400 21 c17 -5 22 -14 22 -40 0 -31 -2 -34 -24 -28 -38
9 -102 -14 -130 -47 -25 -30 -26 -35 -26 -170 l0 -139 -35 0 -35 0 0 210 0
210 30 0 c29 0 30 -1 30 -52 l1 -53 19 36 c21 39 53 65 91 72 13 2 26 5 29 6
3 0 15 -2 28 -5z m322 -7 c19 -7 44 -27 57 -46 22 -32 23 -44 23 -202 l0 -169
-30 0 c-29 0 -30 1 -30 47 l0 48 -18 -34 c-34 -64 -121 -88 -198 -56 -43 18
-68 71 -61 128 10 70 52 99 172 117 110 16 105 14 94 52 -22 78 -101 89 -231
33 -15 -6 -18 -2 -18 22 0 25 6 33 38 46 67 29 143 34 202 14z m-2540 -781 c0
-14 -4 -28 -10 -31 -6 -4 -10 7 -10 24 0 17 5 31 10 31 6 0 10 -11 10 -24z
m32 -7 c-3 -22 -7 -27 -13 -18 -13 21 -11 49 4 49 9 0 12 -10 9 -31z m84 14
c-6 -14 23 -83 34 -83 14 0 41 72 31 84 -7 8 -1 11 20 11 16 0 29 -3 29 -7 0
-5 -4 -8 -10 -8 -5 0 -21 -20 -35 -43 -27 -48 -35 -131 -12 -140 6 -3 -6 -6
-27 -6 -31 -1 -37 2 -28 11 7 7 12 25 12 40 0 34 -45 127 -65 135 -26 9 -16
18 20 19 26 0 34 -3 31 -13z m654 -28 c0 -43 1 -45 20 -35 14 8 26 8 40 0 71
-38 29 -141 -52 -126 l-33 6 3 90 c2 59 0 90 -7 90 -6 0 -11 5 -11 10 0 6 9
10 20 10 17 0 20 -7 20 -45z m160 -48 c0 -59 4 -97 12 -105 9 -9 4 -12 -22
-12 -26 0 -31 3 -22 12 15 15 16 164 2 173 -17 10 -11 25 10 25 19 0 20 -7 20
-93z m1660 63 c0 -16 -4 -30 -9 -30 -10 0 -21 47 -13 55 13 13 22 3 22 -25z
m30 -2 c0 -25 -3 -29 -10 -18 -13 20 -13 50 0 50 6 0 10 -15 10 -32z m-1168 7
c0 -5 -5 -11 -11 -13 -6 -2 -11 4 -11 13 0 9 5 15 11 13 6 -2 11 -8 11 -13z
m-1131 -63 c43 -35 18 -122 -35 -122 -65 0 -91 79 -40 119 33 26 45 26 75 3z
m91 -39 c3 -54 5 -58 28 -58 22 0 25 5 28 38 2 21 -2 45 -9 53 -6 8 -9 14 -6
14 3 0 12 3 21 6 14 5 16 -3 16 -55 0 -40 4 -61 12 -61 32 0 -8 -13 -51 -17
-55 -4 -59 0 -71 79 -6 44 -2 54 22 57 4 1 8 -25 10 -56z m160 -17 c-4 -30 -1
-42 13 -53 17 -12 15 -13 -20 -13 -30 0 -36 3 -27 12 15 15 16 95 0 104 -8 5
-6 10 8 14 24 9 33 -12 26 -64z m53 64 c10 -16 -3 -29 -25 -23 -16 4 -18 8 -9
19 14 17 25 18 34 4z m462 -18 c18 -25 16 -56 -8 -86 -25 -31 -61 -34 -89 -6
-27 27 -25 66 6 96 28 29 67 27 91 -4z m141 17 c15 0 21 -3 15 -6 -7 -2 -13
-15 -13 -29 0 -24 -38 -58 -58 -52 -5 2 -12 -1 -13 -7 -2 -5 16 -12 41 -15 36
-4 46 -9 48 -26 5 -36 -40 -61 -99 -56 -21 2 -33 31 -19 47 6 7 8 20 4 29 -3
9 -1 23 5 30 8 10 9 16 1 21 -29 18 15 83 48 70 8 -3 26 -5 40 -6z m147 0 c11
0 14 -3 8 -6 -7 -2 -13 -15 -13 -28 0 -47 -70 -70 -89 -28 -18 40 11 77 54 68
11 -3 29 -5 40 -6z m77 -47 c-3 -37 0 -52 13 -65 15 -16 14 -17 -22 -16 -21 0
-32 3 -25 6 16 6 16 99 0 109 -8 5 -6 10 8 14 28 11 32 5 26 -48z m108 48 c21
13 26 12 44 -6 10 -9 16 -33 16 -58 0 -23 5 -47 12 -54 9 -9 5 -12 -21 -12
-28 0 -32 2 -21 15 8 9 10 28 5 55 -7 44 -15 53 -39 44 -20 -8 -23 -100 -3
-107 6 -3 -6 -5 -28 -5 -22 0 -34 2 -27 5 16 6 16 99 0 109 -9 6 -5 10 12 14
14 4 27 3 30 -1 3 -4 12 -4 20 1z m198 -1 c15 0 21 -3 15 -6 -7 -2 -13 -15
-13 -28 0 -26 -34 -55 -64 -55 -33 0 -8 -13 37 -19 32 -5 43 -11 45 -27 5 -36
-40 -61 -99 -56 -24 3 -32 32 -14 52 13 14 13 19 3 23 -10 3 -11 9 -1 25 8 13
9 23 3 27 -29 18 15 83 48 70 8 -3 26 -5 40 -6z m226 -22 c3 -12 6 -36 6 -54
0 -17 6 -33 13 -36 8 -3 5 -7 -7 -13 -13 -5 -21 -3 -24 4 -2 8 -10 8 -27 0
-18 -8 -28 -8 -40 2 -24 20 -18 39 20 57 37 18 45 40 19 50 -10 4 -20 -1 -26
-11 -5 -9 -14 -14 -19 -11 -23 15 30 46 62 38 10 -3 20 -15 23 -26z m136 9 c0
-7 -10 -12 -22 -12 -20 1 -23 -5 -26 -46 -2 -38 0 -47 15 -51 10 -3 -2 -5 -27
-5 -25 0 -39 2 -32 5 16 6 16 95 0 111 -10 10 -6 12 24 10 21 -1 40 1 44 5 9
9 24 -1 24 -17z m110 4 c27 -27 17 -40 -31 -40 -43 0 -46 -5 -23 -39 12 -16
23 -22 40 -18 27 5 33 -8 8 -17 -27 -10 -43 -7 -64 14 -27 27 -25 66 5 95 29
30 39 31 65 5z m111 10 c38 21 59 -8 59 -82 0 -20 6 -39 13 -41 6 -3 -6 -5
-28 -5 -22 0 -34 2 -27 5 14 6 17 99 2 108 -5 3 -19 1 -30 -5 -27 -14 -28 -84
-2 -99 13 -8 9 -10 -23 -10 -22 0 -34 3 -27 6 16 6 16 99 0 109 -8 5 -6 10 8
15 10 4 23 3 28 -2 5 -4 17 -4 27 1z m173 -6 c10 -9 16 -33 16 -59 0 -25 5
-45 13 -48 8 -3 6 -7 -7 -12 -21 -9 -36 8 -36 43 0 20 -3 21 -20 12 -26 -14
-26 -40 1 -40 11 0 17 -4 14 -10 -9 -14 -41 -12 -54 4 -16 20 -4 43 30 55 19
7 29 17 29 30 0 25 -17 27 -42 4 -15 -14 -18 -14 -18 -1 0 8 10 20 23 26 30
15 33 14 51 -4z m-1169 -103 c30 -5 41 -11 43 -27 6 -44 -71 -76 -109 -45 -23
19 -23 20 -6 39 12 13 15 22 8 27 -18 11 -12 28 7 20 9 -5 35 -11 57 -14z"/>
<path d="M3160 3684 c-250 -22 -302 -40 -253 -89 11 -12 26 -15 47 -11 183 34
551 34 778 1 53 -8 84 10 74 43 -8 25 -19 29 -116 42 -79 11 -454 21 -530 14z"/>
<path d="M2612 3253 l3 -257 34 -23 c19 -13 38 -23 42 -23 5 0 9 38 9 85 0 71
3 87 17 92 19 8 133 -14 151 -29 8 -7 12 -41 12 -103 0 -71 3 -94 14 -98 14
-5 152 -21 269 -31 l57 -5 0 89 c0 111 2 113 141 108 75 -2 102 -7 109 -18 5
-8 10 -52 10 -97 l0 -82 48 4 c26 3 98 10 160 16 l112 12 0 87 c0 109 11 125
93 142 84 18 91 10 95 -91 3 -91 8 -95 63 -58 l34 23 3 256 2 257 -57 -24
c-142 -57 -383 -89 -678 -89 -294 0 -525 31 -683 90 l-62 23 2 -256z"/>
<path d="M2100 2440 l0 -90 79 0 c43 0 92 5 109 11 37 13 57 55 48 104 -10 53
-36 65 -143 65 l-93 0 0 -90z"/>
<path d="M2100 2195 l0 -95 90 0 c49 0 100 5 114 11 31 15 49 66 40 114 -10
55 -33 65 -146 65 l-98 0 0 -95z"/>
<path d="M2789 2381 c-28 -28 -29 -33 -29 -121 0 -130 25 -170 104 -170 93 0
119 40 114 177 -3 89 -5 96 -31 119 -43 37 -118 34 -158 -5z"/>
<path d="M3290 2413 c-65 -10 -98 -54 -86 -117 9 -48 47 -76 102 -76 80 0 114
32 114 106 0 37 -36 84 -64 84 -8 0 -20 2 -28 4 -7 2 -24 1 -38 -1z"/>
<path d="M3245 2052 c-30 -6 -55 -32 -55 -58 0 -39 35 -54 125 -54 57 0 87 5
103 16 29 20 29 60 0 75 -25 13 -140 27 -173 21z"/>
<path d="M3687 2390 c-30 -24 -47 -75 -47 -140 0 -104 39 -160 111 -160 86 0
119 44 119 158 0 83 -13 125 -45 146 -35 23 -107 21 -138 -4z"/>
<path d="M4555 2245 c-5 -2 -32 -6 -59 -10 -54 -7 -96 -40 -96 -75 0 -32 44
-70 81 -70 74 0 129 53 129 125 0 30 -3 35 -22 34 -13 0 -27 -2 -33 -4z"/>
<path d="M2833 1603 c-16 -6 -17 -75 -1 -91 16 -16 23 -15 42 4 21 21 20 57
-2 77 -20 18 -20 18 -39 10z"/>
<path d="M2311 1601 c-38 -38 -6 -115 38 -92 27 15 28 60 3 91 l-19 23 -22
-22z"/>
<path d="M3067 1609 c-32 -18 -14 -109 22 -109 16 0 31 26 31 55 0 40 -28 68
-53 54z"/>
<path d="M3205 1600 c-11 -17 5 -50 25 -50 20 0 32 23 24 45 -7 17 -40 20 -49
5z"/>
<path d="M3204 1475 c-8 -20 4 -35 29 -35 31 0 51 15 44 34 -8 20 -65 22 -73
1z"/>
<path d="M3361 1611 c-7 -5 -11 -19 -9 -32 4 -31 42 -33 46 -3 4 25 -19 46
-37 35z"/>
<path d="M3748 1606 c-22 -22 -12 -58 16 -54 25 4 31 27 13 52 -12 17 -15 17
-29 2z"/>
<path d="M3734 1475 c-8 -20 4 -35 29 -35 31 0 51 15 44 34 -8 20 -65 22 -73
1z"/>
<path d="M3988 1549 c-24 -14 -23 -39 2 -39 15 0 20 7 20 25 0 28 1 28 -22 14z"/>
<path d="M4217 1596 c-5 -12 1 -16 24 -16 20 0 29 4 27 13 -7 18 -45 20 -51 3z"/>
<path d="M3344 1475 c-9 -23 9 -37 42 -33 21 2 29 8 29 23 0 26 -62 35 -71 10z"/>
</g>
</svg>
