<?xml version="1.0" encoding="UTF-8"?>
<svg version="1.1" xmlns="http://www.w3.org/2000/svg" width="653" height="656">
<path d="M0 0 C215.49 0 430.98 0 653 0 C653 216.48 653 432.96 653 656 C437.51 656 222.02 656 0 656 C0 439.52 0 223.04 0 0 Z " fill="#ECE0D0" transform="translate(0,0)"/>
<path d="M0 0 C1.72012923 -0.00648384 3.44025139 -0.0151414 5.16035998 -0.0257743 C9.86921516 -0.04852652 14.5775745 -0.04022612 19.28644609 -0.02663505 C24.37179679 -0.0173661 29.45705012 -0.03688078 34.54237366 -0.0526123 C44.49800071 -0.07868372 54.45344708 -0.07761588 64.40909527 -0.06657412 C72.50230696 -0.05801093 80.59546642 -0.05885026 88.68867874 -0.06637001 C89.8411848 -0.0674249 90.99369087 -0.06847979 92.18112136 -0.06956664 C94.52254626 -0.0717376 96.86397114 -0.07392438 99.20539601 -0.07612679 C121.15579462 -0.09555188 143.10609194 -0.08356354 165.05648227 -0.06134085 C183.88095822 -0.04309357 202.705238 -0.05398966 221.5296936 -0.08564758 C243.39921652 -0.12242455 265.26861693 -0.13942663 287.13817084 -0.12623531 C289.47152494 -0.12489423 291.80487905 -0.12358525 294.13823318 -0.12230873 C295.28622874 -0.12167807 296.4342243 -0.1210474 297.61700761 -0.12039762 C305.69719705 -0.1173726 313.77729395 -0.12862097 321.85746384 -0.14555931 C331.70946964 -0.16590105 341.56119869 -0.16498894 351.41319011 -0.13692691 C356.43757433 -0.12317021 361.4614757 -0.1189359 366.48584175 -0.14087677 C371.09024581 -0.16071772 375.69374331 -0.15259443 380.29808517 -0.12268243 C381.95881843 -0.11670113 383.61962606 -0.12071654 385.28029935 -0.13604566 C396.28325232 -0.23016385 405.78422445 0.94771195 414.30622995 8.69533807 C420.03757116 14.68175536 422.42160232 20.73850356 422.42479515 28.98025513 C422.42915547 29.68859831 422.4335158 30.3969415 422.43800825 31.12674963 C422.44893512 33.49446117 422.43855483 35.86158678 422.42822266 38.22929382 C422.43168024 39.94626634 422.43644548 41.66323664 422.44240439 43.38020229 C422.45493021 48.09398773 422.44873678 52.80759099 422.43944573 57.52137709 C422.43266209 62.60665593 422.44313308 67.6919033 422.4513855 72.7771759 C422.46473231 82.7375207 422.46184085 92.69779772 422.45314758 102.65814519 C422.44637518 110.75241353 422.44545239 118.84666287 422.44871902 126.94093323 C422.44917872 128.09251401 422.44963842 129.2440948 422.45011205 130.43057197 C422.45107122 132.76991312 422.45204386 135.10925427 422.45302983 137.4485954 C422.4615865 159.38974635 422.45174523 181.3308597 422.43562873 203.27200449 C422.4222253 222.10259437 422.42455332 240.93312877 422.43838501 259.76371765 C422.45443591 281.62582469 422.4607625 303.48789877 422.45154822 325.35001087 C422.45059256 327.68079439 422.44964945 330.01157792 422.44871902 332.34236145 C422.4482562 333.48918142 422.44779337 334.63600139 422.44731652 335.81757349 C422.44472516 343.90305365 422.44910077 351.98851294 422.45615768 360.07398987 C422.46456743 369.92614097 422.46230358 379.77822035 422.44631545 389.63036323 C422.4384257 394.65803077 422.43535319 399.6855787 422.44526291 404.71324539 C422.45419564 409.31480119 422.44930036 413.91612637 422.43333025 418.51766121 C422.42997643 420.18310827 422.43169001 421.84857478 422.43895762 423.51400936 C422.44807725 425.77729663 422.43872693 428.0397935 422.42479515 430.30303955 C422.42406457 432.18892461 422.42406457 432.18892461 422.42331922 434.11290836 C421.47323797 443.02824166 415.95441705 450.41400555 409.17227173 456.01664734 C399.67284668 460.95634837 390.9038607 461.07345135 380.44258118 461.03605652 C378.74806894 461.04094936 377.05356003 461.04714098 375.35905677 461.05451441 C370.71646103 461.0708872 366.07403541 461.06860141 361.43142092 461.06313944 C356.41901171 461.06046597 351.40664752 461.07500701 346.39425659 461.0872345 C336.57957124 461.10827725 326.76494498 461.11283001 316.95023974 461.11104661 C308.97143053 461.1097384 300.99263974 461.11354613 293.013834 461.12097168 C290.71454758 461.1230709 288.41526115 461.1251685 286.11597472 461.1272645 C284.39928203 461.12882979 284.39928203 461.12882979 282.64790867 461.1304267 C261.00847554 461.14932442 239.36907633 461.14828031 217.72963838 461.14145738 C197.94099334 461.13588227 178.15247779 461.15670686 158.36386301 461.18981785 C138.03684593 461.22356529 117.70989085 461.23872186 97.38284522 461.23410082 C85.97400539 461.2318572 74.56528523 461.23708365 63.15646935 461.26199341 C53.44354878 461.28302008 43.7308135 461.28658486 34.01788529 461.26769382 C29.06443522 461.2585445 24.11133052 461.25736844 19.15790749 461.27804947 C14.61833423 461.29679266 10.07938839 461.29221859 5.53983877 461.26950365 C3.90262288 461.26532634 2.26535858 461.26948858 0.62819394 461.28309959 C-10.61175378 461.37013994 -21.21507231 460.38990257 -29.89022827 452.39164734 C-30.95094379 451.17530722 -31.97388228 449.92479239 -32.95272827 448.64164734 C-33.40507164 448.06654936 -33.85741502 447.49145139 -34.32346576 446.8989262 C-39.26667128 439.41980066 -38.64733164 431.39856422 -38.58091736 422.79571533 C-38.58596621 421.07502549 -38.59319765 419.35434092 -38.6024155 417.63366836 C-38.62131678 412.91867473 -38.60911596 408.20420088 -38.59169257 403.4892205 C-38.57831019 398.39913266 -38.59375885 393.30912044 -38.60551453 388.21903992 C-38.62388932 378.2525694 -38.61537964 368.286295 -38.5974263 358.3198306 C-38.58339738 350.21895317 -38.57950814 342.11812895 -38.58286858 334.01724052 C-38.58334602 332.86402153 -38.58382346 331.71080253 -38.58431537 330.5226375 C-38.58534171 328.1798396 -38.58639707 325.83704172 -38.58748113 323.49424385 C-38.59604798 302.77958587 -38.5793741 282.06502252 -38.5496521 261.35038757 C-38.52081852 241.254644 -38.51372943 221.15903678 -38.52914429 201.0632782 C-38.54590995 179.17657831 -38.54993661 157.28994315 -38.53243393 135.40324157 C-38.53058956 133.06878436 -38.52875483 130.73432715 -38.52692986 128.39986992 C-38.52601777 127.25129795 -38.52510568 126.10272598 -38.52416595 124.91934879 C-38.51856255 116.82974155 -38.52186595 108.74016591 -38.52847481 100.65056038 C-38.53621089 90.78973299 -38.52944551 80.92903977 -38.50429977 71.0682394 C-38.49181079 66.03813416 -38.48565099 61.00823773 -38.49684143 55.97812462 C-38.5068975 51.3708687 -38.49839494 46.76402878 -38.47526025 42.15682339 C-38.4701099 40.4927333 -38.47164665 38.82860581 -38.4806549 37.16453213 C-38.5328236 26.65048679 -38.25197721 17.03111562 -30.82772827 8.82914734 C-21.42958054 0.46332517 -11.99913944 -0.08258704 0 0 Z " fill="#6A704C" transform="translate(136.95272827148438,100.35835266113281)"/>
<path d="M0 0 C9.6525 -0.0928125 9.6525 -0.0928125 19.5 -0.1875 C21.51544922 -0.21481201 23.53089844 -0.24212402 25.60742188 -0.27026367 C27.22785851 -0.27903603 28.84830183 -0.28667819 30.46875 -0.29296875 C31.29149414 -0.30831665 32.11423828 -0.32366455 32.96191406 -0.33947754 C39.92727254 -0.34259078 46.7733669 0.98243223 52 6 C53.90024779 11.70074336 54.30326033 19.4515189 52.2109375 25.1484375 C50.48993341 27.73651235 48.1961991 29.81638657 46 32 C46.54269531 32.27972656 47.08539063 32.55945313 47.64453125 32.84765625 C51.82763862 35.1917038 54.99948915 37.12346744 56.59765625 41.91796875 C57.93781497 48.85296485 57.78526437 55.14316187 54.21484375 61.34375 C51.98710173 64.38092884 49.33599158 66.33200421 46 68 C44.51899189 68.08963847 43.03400576 68.11757925 41.55029297 68.11352539 C40.61660889 68.11340454 39.6829248 68.11328369 38.72094727 68.11315918 C37.73795654 68.10804321 36.75496582 68.10292725 35.7421875 68.09765625 C34.83992432 68.09664917 33.93766113 68.09564209 33.00805664 68.09460449 C29.63035821 68.08936358 26.25267786 68.07540236 22.875 68.0625 C15.32625 68.041875 7.7775 68.02125 0 68 C0 45.56 0 23.12 0 0 Z " fill="#EADFCE" transform="translate(141,296)"/>
<path d="M0 0 C2.66754302 1.52353575 4.54965414 3.444308 6.671875 5.66015625 C7.47109375 6.48644531 8.2703125 7.31273437 9.09375 8.1640625 C9.69703125 8.80214844 10.3003125 9.44023437 10.921875 10.09765625 C9.77014145 12.56565672 8.87403935 14.1454919 6.921875 16.09765625 C6.93022247 18.15530855 6.95060199 20.2141299 7.05224609 22.26928711 C7.64517067 34.42908112 7.64517067 34.42908112 4.296875 39.03515625 C0.9728169 42.44464575 -2.35277757 44.88535563 -7.234375 45.265625 C-9.18302067 45.28277857 -11.13200541 45.19831761 -13.078125 45.09765625 C-13.078125 46.08765625 -13.078125 47.07765625 -13.078125 48.09765625 C-11.964375 48.01515625 -10.850625 47.93265625 -9.703125 47.84765625 C-3.8096879 47.83715101 1.91676625 49.92360634 6.6875 53.375 C9.43356228 57.20732109 8.43684348 62.63073864 7.921875 67.09765625 C6.65025755 71.14958983 4.45856248 73.6358554 1.234375 76.41015625 C-5.91052141 80.05000914 -13.42183742 80.45678812 -21.328125 80.41015625 C-22.24037842 80.40886719 -23.15263184 80.40757812 -24.0925293 80.40625 C-31.42639457 80.30256365 -38.0511722 79.2878753 -45.078125 77.09765625 C-44.37970154 71.62667248 -43.28608167 66.53346125 -42.078125 61.09765625 C-33.498125 61.75765625 -24.918125 62.41765625 -16.078125 63.09765625 C-16.078125 62.10765625 -16.078125 61.11765625 -16.078125 60.09765625 C-16.80257813 60.13246094 -17.52703125 60.16726563 -18.2734375 60.203125 C-24.01810668 60.36397574 -28.09135466 60.33231809 -33.078125 57.09765625 C-32.57015491 52.77991045 -31.88129721 49.06463511 -30.078125 45.09765625 C-30.944375 45.01515625 -31.810625 44.93265625 -32.703125 44.84765625 C-37.27352222 43.83201242 -40.44924512 42.22927684 -43.34375 38.44140625 C-47.0247639 32.11628377 -47.06584275 25.59803219 -45.5234375 18.5703125 C-43.81899632 13.69236418 -41.72596353 11.48941256 -37.140625 9.09765625 C-32.29249179 6.93960004 -27.92549953 6.07522513 -22.64453125 5.95703125 C-21.83048828 5.93769531 -21.01644531 5.91835938 -20.17773438 5.8984375 C-18.49047386 5.86466631 -16.80283081 5.84636036 -15.11523438 5.84375 C-10.74353597 5.71242625 -8.03947953 5.49477172 -4.73046875 2.48828125 C-2.078125 0.09765625 -2.078125 0.09765625 0 0 Z " fill="#E9DECD" transform="translate(345.078125,301.90234375)"/>
<path d="M0 0 C5.66409556 4.31550138 7.41899092 7.96084496 8.625 15 C8.88403772 18.20978426 8.9691635 21.4055453 9 24.625 C9.02066528 25.82382812 9.02066528 25.82382812 9.04174805 27.046875 C8.98765839 34.03958622 7.39402676 39.37173167 3.4375 45.25 C-3.71608344 52.24461492 -11.77291493 53.3125 -21.49609375 53.3125 C-28.72566149 53.15808205 -35.05561411 51.88920278 -40.60546875 47.05859375 C-45.375 41.88922156 -45.375 41.88922156 -45.375 38 C-46.035 38 -46.695 38 -47.375 38 C-49.67411082 26.22632763 -49.82637707 13.83442364 -43.8125 3.25 C-31.97908157 -7.67315547 -13.40463123 -7.94348517 0 0 Z " fill="#EADECE" transform="translate(407.375,313)"/>
<path d="M0 0 C4.53671213 3.85814408 7.01960307 8.70719558 7.828125 14.5546875 C8.51899791 25.46580948 8.83391683 35.48877416 2.640625 44.8671875 C-5.15406007 52.31544213 -14.13666437 52.92403918 -24.5546875 52.8359375 C-31.28805066 52.31239306 -36.89934981 50.44039989 -42.109375 46.1171875 C-42.79 45.2715625 -43.470625 44.4259375 -44.171875 43.5546875 C-44.914375 42.7709375 -45.656875 41.9871875 -46.421875 41.1796875 C-51.84432781 33.04600828 -49.57379361 18.66290444 -47.98046875 9.4765625 C-46.75014517 5.03075555 -44.87513414 2.28711338 -41.171875 -0.4453125 C-28.59400853 -7.52989934 -12.24621635 -8.14807308 0 0 Z " fill="#EADFCE" transform="translate(286.171875,313.4453125)"/>
<path d="M0 0 C5.08669008 4.30619266 5.08669008 4.30619266 6.58984375 7.3125 C6.67918781 8.73223273 6.70743353 10.15607791 6.70336914 11.57861328 C6.70329361 12.45937531 6.70321808 13.34013733 6.70314026 14.24758911 C6.69797897 15.19971283 6.69281769 16.15183655 6.6875 17.1328125 C6.68608505 18.10660858 6.6846701 19.08040466 6.68321228 20.08370972 C6.67760348 23.20167073 6.66504948 26.3195606 6.65234375 29.4375 C6.64732988 31.54817605 6.64276678 33.65885322 6.63867188 35.76953125 C6.6276312 40.95054521 6.61088448 46.13151752 6.58984375 51.3125 C4.67443237 51.42091951 2.75724602 51.49828079 0.83984375 51.5625 C-0.2275 51.60890625 -1.29484375 51.6553125 -2.39453125 51.703125 C-6.07567525 51.22629288 -7.02146611 50.03858336 -9.41015625 47.3125 C-11.43920929 47.33188364 -11.43920929 47.33188364 -13.41015625 48.3125 C-14.16554688 48.621875 -14.9209375 48.93125 -15.69921875 49.25 C-16.47007812 49.600625 -17.2409375 49.95125 -18.03515625 50.3125 C-18.81117188 50.663125 -19.5871875 51.01375 -20.38671875 51.375 C-21.73734195 52.00077137 -23.07875914 52.64680144 -24.41015625 53.3125 C-31.82049933 54.0079322 -38.29638996 53.89414173 -44.41015625 49.3125 C-49.5754417 43.7498849 -49.69864205 39.94101378 -49.625 32.51953125 C-49.28091506 27.38328147 -47.79602699 24.65987433 -44.16015625 21.125 C-37.18425182 16.52724481 -30.8106862 15.1670401 -22.59765625 15.25 C-21.43621094 15.25902344 -20.27476562 15.26804687 -19.078125 15.27734375 C-18.19769531 15.28894531 -17.31726563 15.30054688 -16.41015625 15.3125 C-16.41015625 14.3225 -16.41015625 13.3325 -16.41015625 12.3125 C-19.24370724 12.45478301 -22.07694412 12.60123416 -24.91015625 12.75 C-25.70164062 12.78931641 -26.493125 12.82863281 -27.30859375 12.86914062 C-32.38401066 13.13955218 -37.3739107 13.6252142 -42.41015625 14.3125 C-42.7534397 12.96082143 -43.08418322 11.60595725 -43.41015625 10.25 C-43.59578125 9.49589844 -43.78140625 8.74179687 -43.97265625 7.96484375 C-44.50780997 4.7204743 -44.47443378 1.59467148 -44.41015625 -1.6875 C-30.97622227 -5.26420509 -12.23636506 -8.56743875 0 0 Z " fill="#E9DECD" transform="translate(511.41015625,312.6875)"/>
<path d="M0 0 C0.33 18.48 0.66 36.96 1 56 C2.32 56.33 3.64 56.66 5 57 C4.67 62.28 4.34 67.56 4 73 C1.29105233 73.08144943 -1.41541263 73.14070614 -4.125 73.1875 C-4.88554687 73.21263672 -5.64609375 73.23777344 -6.4296875 73.26367188 C-12.45491282 73.34158427 -16.34306707 72.12902228 -21.13908386 68.28593445 C-23.5902123 65.27498794 -23.49006087 63.53975176 -23.4699707 59.68676758 C-23.47435905 57.77007011 -23.47435905 57.77007011 -23.47883606 55.81465149 C-23.46172622 54.42460421 -23.44402737 53.03456408 -23.42578125 51.64453125 C-23.4208566 50.21775264 -23.41755821 48.79096757 -23.41581726 47.36418152 C-23.40818582 44.37905132 -23.38764745 41.39440209 -23.35668945 38.40942383 C-23.31700733 34.57576392 -23.29906295 30.74241604 -23.28938007 26.9085741 C-23.27942891 23.25801726 -23.25952987 19.60753723 -23.23828125 15.95703125 C-23.2348855 15.2570936 -23.23148975 14.55715595 -23.2279911 13.83600807 C-23.21646486 11.86564873 -23.19694071 9.895341 -23.17700195 7.92504883 C-23.16715775 6.80238113 -23.15731354 5.67971344 -23.14717102 4.52302551 C-23 2 -23 2 -22 1 C-20.19383781 0.75898 -18.37883251 0.58326936 -16.5625 0.4375 C-15.57378906 0.35371094 -14.58507812 0.26992188 -13.56640625 0.18359375 C-9.04983737 -0.04891308 -4.52254949 0 0 0 Z " fill="#E7DCCB" transform="translate(228,292)"/>
<path d="M0 0 C0.85373239 7.02804699 1.12109311 13.92278069 1 21 C0.21753906 21.20496094 -0.56492187 21.40992188 -1.37109375 21.62109375 C-2.38300781 21.89050781 -3.39492188 22.15992188 -4.4375 22.4375 C-5.44683594 22.70433594 -6.45617187 22.97117187 -7.49609375 23.24609375 C-9.91752001 23.75978077 -9.91752001 23.75978077 -11 25 C-11.15888092 27.28988781 -11.25138073 29.58443441 -11.31640625 31.87890625 C-11.33718735 32.5655687 -11.35796844 33.25223114 -11.37937927 33.95970154 C-11.44494143 36.16052935 -11.50379015 38.36147975 -11.5625 40.5625 C-11.60567892 42.05144514 -11.649293 43.54037773 -11.69335938 45.02929688 C-11.8014515 48.68607392 -11.90047374 52.34293947 -12 56 C-19.26 56 -26.52 56 -34 56 C-34 38.18 -34 20.36 -34 2 C-30.04 2 -26.08 2 -22 2 C-20.68 3.32 -19.36 4.64 -18 6 C-15.00306801 5.8123252 -12.57428585 4.38189933 -9.9375 3 C-6.5474357 1.23013917 -3.90960707 0 0 0 Z " fill="#E9DECD" transform="translate(459,308)"/>
<path d="M0 0 C0 7.92 0 15.84 0 24 C-4.21629134 26.10814567 -6.39790775 26.17700355 -11 26 C-11.08678303 22.04180389 -11.14031733 18.08385066 -11.1875 14.125 C-11.21263672 12.99707031 -11.23777344 11.86914062 -11.26367188 10.70703125 C-11.27333984 9.63066406 -11.28300781 8.55429687 -11.29296875 7.4453125 C-11.3086792 6.45031738 -11.32438965 5.45532227 -11.34057617 4.43017578 C-11.22818604 3.62821777 -11.1157959 2.82625977 -11 2 C-8 0 -8 0 0 0 Z " fill="#787C5A" transform="translate(271,324)"/>
<path d="M0 0 C1.9453125 -0.29296875 1.9453125 -0.29296875 4.125 -0.1875 C5.40375 -0.125625 6.6825 -0.06375 8 0 C8.02886984 3.97915159 8.04675406 7.95827653 8.0625 11.9375 C8.07087891 13.07380859 8.07925781 14.21011719 8.08789062 15.38085938 C8.09111328 16.46044922 8.09433594 17.54003906 8.09765625 18.65234375 C8.10289307 19.65257568 8.10812988 20.65280762 8.11352539 21.68334961 C8 24 8 24 7 25 C5.48071962 25.07179964 3.95832518 25.08392007 2.4375 25.0625 C1.61121094 25.05347656 0.78492188 25.04445313 -0.06640625 25.03515625 C-1.02353516 25.01775391 -1.02353516 25.01775391 -2 25 C-2.05800828 21.39590081 -2.09359869 17.79192149 -2.125 14.1875 C-2.14175781 13.16333984 -2.15851563 12.13917969 -2.17578125 11.08398438 C-2.18222656 10.10107422 -2.18867188 9.11816406 -2.1953125 8.10546875 C-2.20578613 7.19949951 -2.21625977 6.29353027 -2.22705078 5.36010742 C-2 3 -2 3 0 0 Z " fill="#717653" transform="translate(385,324)"/>
<path d="M0 0 C1.60875 -0.061875 3.2175 -0.12375 4.875 -0.1875 C5.77992188 -0.22230469 6.68484375 -0.25710938 7.6171875 -0.29296875 C8.79667969 -0.14794922 8.79667969 -0.14794922 10 0 C12 3 12 3 11.6875 6.625 C11 10 11 10 10 11 C6.66381769 11.14257189 3.34024394 11.04228157 0 11 C0 7.37 0 3.74 0 0 Z " fill="#717653" transform="translate(163,337)"/>
<path d="M0 0 C0 3.3 0 6.6 0 10 C-3.47325181 11.1577506 -6.36067448 11.06866652 -10 11 C-10 7.7 -10 4.4 -10 1 C-6.78548731 -0.60725635 -3.56387464 -0.05748185 0 0 Z " fill="#717653" transform="translate(330,323)"/>
<path d="M0 0 C6.625 -0.25 6.625 -0.25 10 2 C10.25 5.5625 10.25 5.5625 10 9 C9 10 9 10 6.93359375 10.09765625 C3.46679688 10.04882812 3.46679688 10.04882812 0 10 C0 6.7 0 3.4 0 0 Z " fill="#737855" transform="translate(163,311)"/>
<path d="M0 0 C1.21816406 0.03480469 1.21816406 0.03480469 2.4609375 0.0703125 C3.68683594 0.09738281 3.68683594 0.09738281 4.9375 0.125 C5.87722656 0.15980469 5.87722656 0.15980469 6.8359375 0.1953125 C7.0234375 3.5703125 7.0234375 3.5703125 6.8359375 7.1953125 C3.74705228 9.25456931 3.12657823 9.4343499 -0.3515625 9.3203125 C-2.23875 9.2584375 -2.23875 9.2584375 -4.1640625 9.1953125 C-4.2890625 5.8203125 -4.2890625 5.8203125 -4.1640625 2.1953125 C-2.1640625 0.1953125 -2.1640625 0.1953125 0 0 Z " fill="#757957" transform="translate(488.1640625,340.8046875)"/>
<path d="M0 0 C0.66 0.33 1.32 0.66 2 1 C-0.97 3.97 -3.94 6.94 -7 10 C-7 5.69032084 -4.83274712 4.10253255 -2 1 C-1.34 0.67 -0.68 0.34 0 0 Z " fill="#D0C8B3" transform="translate(247,312)"/>
<path d="M0 0 C0.66 0.33 1.32 0.66 2 1 C-0.97 3.97 -3.94 6.94 -7 10 C-7 6.04435836 -5.59478606 4.89133304 -3 2 C-2.01 1.34 -1.02 0.68 0 0 Z " fill="#CEC6B2" transform="translate(369,312)"/>
<path d="M0 0 C0.66 0.33 1.32 0.66 2 1 C1.0479279 2.00596297 0.08812654 3.00461563 -0.875 4 C-1.40867187 4.556875 -1.94234375 5.11375 -2.4921875 5.6875 C-4 7 -4 7 -6 7 C-4.60667426 3.63279613 -3.0210714 2.0140476 0 0 Z " fill="#D4CCB8" transform="translate(470,332)"/>
</svg>
